<svg height="512" viewBox="0 0 512 512" width="512" xmlns="http://www.w3.org/2000/svg"><g id="Fill_out_line" data-name="Fill out line"><path d="m296 360-96-112-96 112v96h368v-64l-56-32z" fill="#e4595b"/><path d="m168 408h64v48h-64z" fill="#c4965c"/><path d="m296 360 56 32h120l-56-32z" fill="#a6b2bc"/><path d="m352 392h120v64h-120z" fill="#bf2226"/><path d="m296 456v-96l56 32v64z" fill="#d14547"/><path d="m200 248h120l96 112h-120z" fill="#d3e1e9"/><path d="m168 328h32v32h-32z" fill="#c4965c"/><path d="m200 328h32v32h-32z" fill="#ad7d4d"/><path d="m200 408h32v48h-32z" fill="#ad7d4d"/><path d="m296 408h32v48h-32z" fill="#c4965c"/><path d="m312 112a56 56 0 0 0 -112 0c0 30.928 56 112 56 112s56-81.072 56-112z" fill="#e4595b"/><circle cx="256" cy="112" fill="#d3e1e9" r="32"/><path d="m168 368h64a8.00008 8.00008 0 0 0 8-8v-32a8.00008 8.00008 0 0 0 -8-8h-64a8.00008 8.00008 0 0 0 -8 8v32a8.00008 8.00008 0 0 0 8 8zm56-16h-16v-16h16zm-48-16h16v16h-16z"/><path d="m480 448v-56a8.00057 8.00057 0 0 0 -4.03076-6.94629l-54.79785-31.313-95.09717-110.94671a7.99987 7.99987 0 0 0 -6.07422-2.794h-120a7.99987 7.99987 0 0 0 -6.07422 2.79395l-96 112a7.9994 7.9994 0 0 0 -1.92578 5.20605v40h-16v-16h-16v16h-24v-16h-16v16h-8v16h8v32h-8v16h480v-16zm-66.12451-80 28 16h-87.751l-27.99963-16zm-53.87549 32h104v48h-104zm38.6062-48h-98.92651l-82.28589-96h98.92651zm-286.6062 10.959 88-102.666 89.92578 104.91308a7.99911 7.99911 0 0 0 2.1084 1.73438l-.00342.00586 51.96924 29.69675v51.35693h-8v-40a8.00008 8.00008 0 0 0 -8-8h-32a8.00008 8.00008 0 0 0 -8 8v40h-48v-40a8.00008 8.00008 0 0 0 -8-8h-64a8.00008 8.00008 0 0 0 -8 8v40h-48zm-16 53.041v32h-16v-32zm-56 0h24v32h-24zm136 0h16v32h-16zm32 32v-32h16v32zm96 0v-32h16v32z"/><path d="m256 232a8.00125 8.00125 0 0 0 6.58252-3.45312c5.87695-8.50879 57.41748-84.0625 57.41748-116.54688a64 64 0 0 0 -128 0c0 32.48438 51.54053 108.03809 57.41748 116.54688a8.00125 8.00125 0 0 0 6.58252 3.45312zm0-168a48.054 48.054 0 0 1 48 48c0 20.44336-30.30469 70.7666-48 97.666-17.69531-26.8994-48-77.22264-48-97.666a48.054 48.054 0 0 1 48-48z"/><path d="m296 112a40 40 0 1 0 -40 40 40.04552 40.04552 0 0 0 40-40zm-64 0a24 24 0 1 1 24 24 24.0275 24.0275 0 0 1 -24-24z"/></g></svg>